<svg width="250" height="250" viewBox="0 0 250 250" fill="none" xmlns="http://www.w3.org/2000/svg">
<path d="M29.1667 171.958C29.1667 159.404 29.1667 153.137 31.9938 148.527C33.5737 145.949 35.7411 143.782 38.3188 142.202C42.9188 139.375 49.2054 139.375 61.75 139.375H72.2917C90.3658 139.375 99.3933 139.375 105.009 144.991C110.625 150.607 110.625 159.634 110.625 177.708V188.25C110.625 200.804 110.625 207.072 107.798 211.681C106.218 214.259 104.051 216.426 101.473 218.006C96.8729 220.833 90.5863 220.833 78.0417 220.833C59.22 220.833 49.8092 220.833 42.8996 216.597C39.0331 214.228 35.782 210.977 33.4121 207.11C29.1667 200.181 29.1667 190.78 29.1667 171.958ZM139.375 61.75C139.375 49.1958 139.375 42.9283 142.202 38.3187C143.782 35.7411 145.949 33.5737 148.527 31.9937C153.127 29.1667 159.414 29.1667 171.958 29.1667C190.78 29.1667 200.191 29.1667 207.11 33.4025C210.977 35.7724 214.228 39.0235 216.598 42.89C220.833 49.8187 220.833 59.2296 220.833 78.0417C220.833 90.5958 220.833 96.8633 218.006 101.473C216.426 104.051 214.259 106.218 211.681 107.798C207.081 110.625 200.795 110.625 188.25 110.625H177.708C159.634 110.625 150.607 110.625 144.991 105.009C139.375 99.3933 139.375 90.3658 139.375 72.2917V61.75Z" fill="#B4C6DF" stroke="#45556C" stroke-width="6"/>
<path d="M168.125 69.8958C168.125 64.9604 168.125 62.4879 169.371 60.7437C169.805 60.1285 170.339 59.5907 170.952 59.1529C172.696 57.9167 175.169 57.9167 180.104 57.9167C185.04 57.9167 187.512 57.9167 189.256 59.1625C189.872 59.5966 190.409 60.1311 190.847 60.7437C192.083 62.4879 192.083 64.9604 192.083 69.8958C192.083 74.8312 192.083 77.3037 190.838 79.0479C190.403 79.6632 189.869 80.201 189.256 80.6387C187.512 81.875 185.04 81.875 180.104 81.875C175.169 81.875 172.696 81.875 170.952 80.6292C170.337 80.1951 169.799 79.6605 169.361 79.0479C168.125 77.3037 168.125 74.8312 168.125 69.8958Z" fill="#45556C"/>
<path d="M192.083 139.375H172.917C159.452 139.375 152.725 139.375 147.895 142.605C145.801 144.003 144.003 145.801 142.605 147.895C139.375 152.725 139.375 159.462 139.375 172.917" stroke="black" stroke-width="6"/>
<path d="M132.188 220.833C132.188 222.74 132.945 224.568 134.293 225.916C135.641 227.264 137.469 228.021 139.375 228.021C141.281 228.021 143.109 227.264 144.457 225.916C145.805 224.568 146.562 222.74 146.562 220.833H132.188ZM132.188 192.083V220.833H146.562V192.083H132.188Z" fill="#45556C"/>
<path d="M172.917 220.833H192.083C201.015 220.833 205.481 220.833 208.998 219.377C211.325 218.413 213.439 217.001 215.22 215.22C217.001 213.439 218.413 211.325 219.377 208.998C220.833 205.481 220.833 201.015 220.833 192.083" stroke="black" stroke-width="5" stroke-linejoin="round"/>
<path d="M228.021 139.375C228.021 137.469 227.264 135.641 225.916 134.293C224.568 132.945 222.74 132.188 220.833 132.188C218.927 132.188 217.099 132.945 215.751 134.293C214.403 135.641 213.646 137.469 213.646 139.375H228.021ZM228.021 172.917V139.375H213.646V172.917H228.021Z" fill="#45556C"/>
<path d="M29.1667 78.0417C29.1667 59.22 29.1667 49.8092 33.4025 42.8996C35.7725 39.0331 39.0235 35.782 42.89 33.4121C49.8188 29.1667 59.2296 29.1667 78.0417 29.1667C90.5958 29.1667 96.8633 29.1667 101.473 31.9937C104.051 33.5737 106.218 35.7411 107.798 38.3187C110.625 42.9187 110.625 49.2054 110.625 61.75V72.2917C110.625 90.3658 110.625 99.3933 105.009 105.009C99.3933 110.625 90.3658 110.625 72.2917 110.625H61.75C49.1958 110.625 42.9283 110.625 38.3188 107.798C35.7411 106.218 33.5737 104.051 31.9938 101.473C29.1667 96.8729 29.1667 90.5862 29.1667 78.0417Z" stroke="#45556C" stroke-width="6"/>
<path d="M57.9167 69.8958C57.9167 64.9604 57.9167 62.4879 59.1625 60.7437C59.5966 60.1285 60.1311 59.5907 60.7438 59.1529C62.4879 57.9167 64.9604 57.9167 69.8958 57.9167C74.8313 57.9167 77.3038 57.9167 79.0479 59.1625C79.6632 59.5966 80.201 60.1311 80.6388 60.7437C81.875 62.4879 81.875 64.9604 81.875 69.8958C81.875 74.8312 81.875 77.3037 80.6292 79.0479C80.1951 79.6632 79.6606 80.201 79.0479 80.6387C77.3038 81.875 74.8313 81.875 69.8958 81.875C64.9604 81.875 62.4879 81.875 60.7438 80.6292C60.1285 80.1951 59.5907 79.6605 59.1529 79.0479C57.9167 77.3037 57.9167 74.8312 57.9167 69.8958ZM57.9167 180.104C57.9167 175.169 57.9167 172.696 59.1625 170.952C59.5966 170.337 60.1311 169.799 60.7438 169.361C62.4879 168.125 64.9604 168.125 69.8958 168.125C74.8313 168.125 77.3038 168.125 79.0479 169.371C79.6632 169.805 80.201 170.339 80.6388 170.952C81.875 172.696 81.875 175.169 81.875 180.104C81.875 185.04 81.875 187.512 80.6292 189.256C80.1951 189.872 79.6606 190.409 79.0479 190.847C77.3038 192.083 74.8313 192.083 69.8958 192.083C64.9604 192.083 62.4879 192.083 60.7438 190.838C60.1285 190.403 59.5907 189.869 59.1529 189.256C57.9167 187.512 57.9167 185.04 57.9167 180.104ZM163.333 180.104C163.333 173.377 163.333 170.013 164.953 167.588C165.65 166.546 166.546 165.65 167.588 164.953C170.013 163.333 173.377 163.333 180.104 163.333C186.832 163.333 190.195 163.333 192.62 164.953C193.662 165.65 194.558 166.546 195.255 167.588C196.875 170.013 196.875 173.377 196.875 180.104C196.875 186.832 196.875 190.195 195.255 192.62C194.558 193.662 193.662 194.558 192.62 195.255C190.195 196.875 186.832 196.875 180.104 196.875C173.377 196.875 170.013 196.875 167.588 195.255C166.546 194.558 165.65 193.662 164.953 192.62C163.333 190.195 163.333 186.832 163.333 180.104Z" fill="#45556C"/>
</svg>
