<svg width="250" height="250" viewBox="0 0 250 250" fill="none" xmlns="http://www.w3.org/2000/svg">
<g clip-path="url(#clip0_114_51)">
<path d="M234.45 46.9286C234.284 46.3016 234.063 45.6905 233.79 45.1025C233.013 43.3111 231.848 41.7143 230.38 40.4273C229.428 39.5527 228.354 38.8225 227.19 38.2603L181.892 16.3255C179.321 15.1179 176.443 14.7226 173.642 15.1924C170.845 15.6778 168.265 17.0102 166.25 19.0096L93.166 100.247L50.508 65.0792L46.801 61.9881C45.5206 60.8667 43.9426 60.1407 42.258 59.898C42.016 59.854 41.774 59.8284 41.532 59.821C41.3193 59.7917 41.103 59.7807 40.883 59.788C40.5457 59.788 40.2157 59.799 39.893 59.821C39.5982 59.8296 39.306 59.8777 39.024 59.964C38.4343 60.0654 37.8584 60.2353 37.308 60.47L20.643 67.3893C18.9894 68.1038 17.571 69.2706 16.551 70.7554C15.5514 72.267 15.0125 74.0364 15 75.8486V174.148C15 175.941 15.55 177.723 16.54 179.241C17.541 180.715 18.982 181.881 20.643 182.607L37.308 189.626C38.8718 190.275 40.5827 190.488 42.258 190.242C43.934 189.97 45.5045 189.248 46.801 188.152L50.508 184.917L93.166 149.738L166.25 230.987C166.499 231.229 166.763 231.471 167.042 231.713C167.071 231.75 167.108 231.772 167.152 231.779C169.169 233.474 171.631 234.553 174.244 234.888C176.858 235.224 179.512 234.801 181.892 233.671L227.201 211.736C227.789 211.464 228.353 211.14 228.884 210.768C229.951 210.053 230.941 209.151 231.766 208.227C232.184 207.714 232.562 207.186 232.899 206.643C234.274 204.443 235 201.902 235 199.284V50.7127C235 49.4293 234.817 48.1679 234.45 46.9286ZM42.5 156.613V93.3832L70.924 125.02L42.5 156.613ZM123.174 125.009L180 78.1587V171.86L123.174 125.009Z" fill="#45556C"/>
</g>
<defs>
<clipPath id="clip0_114_51">
<rect width="250" height="250" fill="white"/>
</clipPath>
</defs>
</svg>
